<svg id="visual" viewBox="0 0 1440 768" width="1440" height="768" xmlns="http://www.w3.org/2000/svg" xmlns:xlink="http://www.w3.org/1999/xlink" version="1.1"><rect width="1440" height="768" fill="#FFFFFF"></rect><g><g transform="translate(1178 197)"><path d="M139 -82C164.5 -36 158.8 26.2 130.4 71.4C102.1 116.7 51 145 0.1 144.9C-50.7 144.8 -101.5 116.4 -124.4 74.2C-147.3 32.1 -142.4 -23.7 -117.1 -69.6C-91.7 -115.4 -45.9 -151.5 5.4 -154.6C56.7 -157.7 113.4 -128 139 -82Z" fill="#636AE8"></path></g><g transform="translate(621 598)"><path d="M75.6 -41.9C90.7 -17.6 90.6 17.3 75.4 41.5C60.3 65.7 30.1 79.1 2.1 77.9C-25.9 76.7 -51.8 60.8 -67.1 36.5C-82.3 12.3 -86.9 -20.2 -73.9 -43.4C-61 -66.5 -30.5 -80.3 -0.1 -80.2C30.3 -80.2 60.6 -66.3 75.6 -41.9Z" fill="#636AE8"></path></g><g transform="translate(407 152)"><path d="M66.3 -38C79.9 -14.7 80.8 16.2 67.6 39.3C54.5 62.4 27.2 77.6 -1.2 78.2C-29.6 78.9 -59.1 65 -73.5 41.3C-88 17.5 -87.3 -16.3 -72.5 -40.3C-57.7 -64.3 -28.9 -78.6 -1.3 -77.9C26.3 -77.1 52.7 -61.4 66.3 -38Z" fill="#636AE8"></path></g><g transform="translate(105 596)"><path d="M108 -61.5C132.8 -19.3 141 33.4 120.2 69.9C99.4 106.4 49.7 126.8 3.2 124.9C-43.3 123.1 -86.6 99 -106.6 63C-126.5 27 -123.1 -21.1 -101.5 -61.5C-79.8 -101.9 -39.9 -134.7 0.8 -135.1C41.6 -135.6 83.1 -103.8 108 -61.5Z" fill="#636AE8"></path></g></g></svg>