<svg id="visual" viewBox="0 0 1440 768" width="1440" height="768" xmlns="http://www.w3.org/2000/svg" xmlns:xlink="http://www.w3.org/1999/xlink" version="1.1"><rect x="0" y="0" width="1440" height="768" fill="#FFFFFF"></rect><defs><linearGradient id="grad1_0" x1="46.7%" y1="0%" x2="100%" y2="100%"><stop offset="12.5%" stop-color="#ffffff" stop-opacity="1"></stop><stop offset="87.5%" stop-color="#ffffff" stop-opacity="1"></stop></linearGradient></defs><defs><linearGradient id="grad2_0" x1="0%" y1="0%" x2="53.3%" y2="100%"><stop offset="12.5%" stop-color="#ffffff" stop-opacity="1"></stop><stop offset="87.5%" stop-color="#ffffff" stop-opacity="1"></stop></linearGradient></defs><g transform="translate(1440, 0)"><path d="M0 460.8C-61.7 455.4 -123.4 449.9 -176.3 425.7C-229.2 401.5 -273.3 358.6 -314.7 314.7C-356 270.8 -394.6 226 -418.5 173.4C-442.4 120.8 -451.6 60.4 -460.8 0L0 0Z" fill="#636AE8"></path></g><g transform="translate(0, 768)"><path d="M0 -460.8C61.1 -455.9 122.2 -450.9 176.3 -425.7C230.5 -400.5 277.8 -355 305.5 -305.5C333.2 -255.9 341.4 -202.4 364 -150.8C386.6 -99.2 423.7 -49.6 460.8 0L0 0Z" fill="#636AE8"></path></g></svg>